#N canvas 0 50 450 641 10;
#X obj 38 21 inlet;
#X text 3 3 numberToCompare;
#X text 115 3 lessThanOrGreater;
#X obj 156 21 inlet;
#X text 245 3 threshold;
#X obj 260 21 inlet;
#X obj 191 440 spigot;
#X floatatom 191 460 5 0 0 0 - - -, f 5;
#X floatatom 191 423 5 0 0 0 - - -, f 5;
#X obj 230 422 tgl 15 0 empty empty empty 17 7 0 10 -262144 -1 -1 0
1;
#X msg 230 370 1;
#X msg 191 366 0;
#X floatatom 156 41 5 0 0 0 - - -, f 5;
#X floatatom 122 168 5 0 0 0 - - -, f 5;
#X obj 156 58 select 0 1;
#X obj 61 121 bng 15 250 50 0 empty empty empty 17 7 0 10 -262144 -1
-1;
#X obj 219 259 >;
#X obj 156 78 bng 15 250 50 0 empty empty empty 17 7 0 10 -262144 -1
-1;
#X obj 189 78 bng 15 250 50 0 empty empty empty 17 7 0 10 -262144 -1
-1;
#X obj 191 259 <;
#X floatatom 260 42 5 0 0 0 - - -, f 5;
#X obj 156 116 t b b b;
#X obj 219 239 spigot;
#X obj 163 185 spigot;
#X obj 202 167 tgl 15 0 empty empty empty 17 7 0 10 -262144 -1 -1 0
1;
#X msg 202 147 1;
#X msg 170 147 0;
#X obj 258 222 tgl 15 0 empty empty empty 17 7 0 10 -262144 -1 -1 0
1;
#X msg 258 167 1;
#X msg 220 167 0;
#X obj 212 116 t b b b;
#X obj 191 477 outlet;
#X obj 191 279 select 1;
#X obj 191 346 t b b;
#X floatatom 168 386 5 0 0 0 - - -, f 5;
#X floatatom 162 168 5 0 0 0 - - -, f 5;
#X connect 0 0 13 0;
#X connect 3 0 12 0;
#X connect 5 0 20 0;
#X connect 6 0 7 0;
#X connect 7 0 31 0;
#X connect 8 0 6 0;
#X connect 8 0 11 0;
#X connect 9 0 6 1;
#X connect 10 0 9 0;
#X connect 11 0 9 0;
#X connect 12 0 14 0;
#X connect 13 0 15 0;
#X connect 13 0 34 0;
#X connect 13 0 35 0;
#X connect 14 0 17 0;
#X connect 14 1 18 0;
#X connect 15 0 12 0;
#X connect 16 0 32 0;
#X connect 17 0 21 0;
#X connect 18 0 30 0;
#X connect 19 0 32 0;
#X connect 20 0 19 1;
#X connect 20 0 16 1;
#X connect 21 0 26 0;
#X connect 21 1 35 0;
#X connect 21 2 25 0;
#X connect 22 0 16 0;
#X connect 23 0 19 0;
#X connect 24 0 23 1;
#X connect 25 0 24 0;
#X connect 26 0 24 0;
#X connect 27 0 22 1;
#X connect 28 0 27 0;
#X connect 29 0 27 0;
#X connect 30 0 29 0;
#X connect 30 1 35 0;
#X connect 30 2 28 0;
#X connect 32 0 33 0;
#X connect 33 0 34 0;
#X connect 33 1 10 0;
#X connect 34 0 8 0;
#X connect 35 0 22 0;
#X connect 35 0 23 0;
