#N canvas 244 50 1048 631 10;
#X obj 75 73 netreceive -u -b 6666;
#X msg 75 22 listen 6666;
#X msg 89 42 listen 0;
#X obj 75 2 loadbang;
#X obj 57 20 bng 15 250 50 0 empty empty empty 17 7 0 10 -262144 -1
-1;
#X obj 57 2 bng 15 250 50 0 empty empty empty 17 7 0 10 -262144 -1
-1;
#X text 25 19 stop;
#X obj 57 40 vsl 15 128 0 127 0 0 empty empty empty 0 -9 0 10 -262144
-1 -1 0 1;
#X floatatom 57 174 5 0 0 0 - - -, f 5;
#X obj 57 191 / 127;
#X text 11 37 volume;
#X obj 75 93 oscparse;
#X obj 75 113 list trim;
#X obj 99 191 route time;
#X obj 176 191 route dist;
#X obj 813 162 bng 15 250 50 0 empty empty empty 17 7 0 10 -262144
-1 -1;
#X text 39 1 go;
#X msg 813 122 0;
#X text 810 106 make sure we're getting messages;
#X obj 330 191 route foot;
#X obj 60 543 dac~, f 6;
#X obj 781 162 bng 15 250 50 0 empty empty empty 17 7 0 10 -262144
-1 -1;
#X obj 781 180 timer;
#X floatatom 781 200 5 0 0 0 - - -, f 5;
#X obj 813 142 metro 20;
#X msg 781 254 \$1 100;
#X obj 781 274 line 0 10;
#X obj 98 523 *~ 1;
#X obj 60 523 *~ 1;
#X obj 60 503 *~ 1;
#X obj 98 503 *~ 1;
#X obj 781 217 < 1000;
#X obj 253 191 route road;
#X obj 176 211 route wolf;
#X obj 362 251 bng 15 250 50 0 empty empty empty 17 7 0 10 -262144
-1 -1;
#X msg 362 211 0;
#X obj 330 251 bng 15 250 50 0 empty empty empty 17 7 0 10 -262144
-1 -1;
#X obj 330 269 timer;
#X floatatom 330 289 5 0 0 0 - - -, f 5;
#X obj 331 383 line 0.5 10;
#X floatatom 331 326 5 0 0 0 - - -, f 5;
#X msg 331 363 \$1 10000;
#X floatatom 781 237 5 0 0 0 - - -, f 5;
#X msg 373 343 set 0.5;
#X floatatom 262 432 5 0 0 0 - - -, f 5;
#X obj 331 343 + 0.5;
#X obj 331 306 > 1000;
#X text 388 211 Whenever a footstep happens \, lower forest sounds
;
#X text 430 229 Slowly build it back up after a second;
#X floatatom 781 295 5 0 0 0 - - -, f 5;
#X text 731 312 It says + \, but means it approaches 0;
#X text 414 360 Sending more messages to line makes it a curve;
#X text 414 373 Ideally I'd have it do an S curve \, but that's hardly
necessary or achievable here. The low slope makes it okay.;
#X obj 362 231 metro 40;
#X text 428 342 The set might cause clicking \, but mask it with footstep
;
#X obj 211 231 print;
#N canvas 0 50 450 300 wolfSounds 1;
#X restore 169 269 pd wolfSounds;
#X connect 0 0 11 0;
#X connect 0 0 21 0;
#X connect 1 0 0 0;
#X connect 2 0 0 0;
#X connect 3 0 1 0;
#X connect 3 0 24 0;
#X connect 3 0 53 0;
#X connect 4 0 2 0;
#X connect 4 0 17 0;
#X connect 4 0 35 0;
#X connect 5 0 1 0;
#X connect 5 0 24 0;
#X connect 5 0 53 0;
#X connect 7 0 8 0;
#X connect 8 0 9 0;
#X connect 9 0 29 1;
#X connect 9 0 30 1;
#X connect 11 0 12 0;
#X connect 12 0 13 0;
#X connect 12 0 14 0;
#X connect 12 0 19 0;
#X connect 14 0 32 0;
#X connect 14 0 33 0;
#X connect 14 0 55 0;
#X connect 15 0 22 1;
#X connect 17 0 24 0;
#X connect 19 0 36 0;
#X connect 21 0 22 0;
#X connect 22 0 23 0;
#X connect 23 0 31 0;
#X connect 24 0 15 0;
#X connect 25 0 26 0;
#X connect 26 0 28 1;
#X connect 26 0 27 1;
#X connect 26 0 49 0;
#X connect 27 0 20 1;
#X connect 28 0 20 0;
#X connect 29 0 28 0;
#X connect 30 0 27 0;
#X connect 31 0 42 0;
#X connect 34 0 37 1;
#X connect 35 0 53 0;
#X connect 36 0 37 0;
#X connect 36 0 43 0;
#X connect 37 0 38 0;
#X connect 38 0 46 0;
#X connect 39 0 44 0;
#X connect 40 0 45 0;
#X connect 41 0 39 0;
#X connect 42 0 25 0;
#X connect 43 0 39 0;
#X connect 45 0 41 0;
#X connect 46 0 40 0;
#X connect 53 0 34 0;
